<svg width="34" height="34" viewBox="0 0 34 34" fill="none" xmlns="http://www.w3.org/2000/svg">
<path d="M20.75 0.766677L20.6166 0.70001L20.6 0.733344C19.4333 0.483344 18.2333 0.333344 17 0.333344C7.79998 0.333344 0.333313 7.80001 0.333313 17C0.333313 26.2 7.79998 33.6667 17 33.6667C26.2 33.6667 33.6666 26.2 33.6666 17C33.6666 9.08334 28.15 2.46668 20.75 0.766677ZM29.35 12H16.0333L20.55 4.16668C24.55 5.26668 27.8 8.20001 29.35 12ZM18.8333 3.80001L14.1166 12L12.2 15.3333L7.66665 7.50001C10.1513 5.04255 13.5054 3.66498 17 3.66668C17.6166 3.66668 18.2333 3.71668 18.8333 3.80001ZM6.49998 8.81668L11.2333 17L13.15 20.3333H4.09998C3.83331 19.2667 3.66665 18.15 3.66665 17C3.66665 13.9167 4.73331 11.0833 6.49998 8.81668ZM4.64998 22H17.95L13.4333 29.8333C11.4693 29.283 9.657 28.2911 8.13477 26.9335C6.61253 25.5759 5.42061 23.8885 4.64998 22ZM15.1666 30.1833L21.8166 18.6667L26.35 26.5C23.857 28.9551 20.4989 30.3319 17 30.3333C16.3666 30.3333 15.7666 30.2667 15.1666 30.1833ZM27.5 25.1833L20.8333 13.6667H29.8833C30.1666 14.7333 30.3333 15.85 30.3333 17C30.3333 20.0833 29.2666 22.9167 27.5 25.1833Z" fill="#3C3C3C"/>
</svg>
